# xmcd
#
# Track frame offsets: 
#        150
#        14243
#        26954
#        40056
#        58439
#        72118
#        87798
#        101635
#        117671
#        138194
#        160563
#        171239
#        187406
#        198532
#        211479
#
# Disc length: 3006 seconds
#
# Revision: 0
# Processed by: cddbd v1.4PL0 Copyright (c) Steve Scherf et al.
# Submitted via: ExactAudioCopy v0.90b4
#
DISCID=e60bbc0f
DTITLE=Wigs - Dance With Me
DYEAR=2002
DGENRE=Other
TTITLE0=Bring back the love
TTITLE1=Draaie dan 797204
TTITLE2=Love me, Love me
TTITLE3=Jouw liefde is voorbij
TTITLE4=Pretend
TTITLE5=Hey Marguarita
TTITLE6=Return the sender
TTITLE7=Hoe langer ik dans met jou
TTITLE8=2 Pina Colada's
TTITLE9=You're the one always
TTITLE10=Ik bel
TTITLE11=I just can't get enough
TTITLE12=Don't lose your hucklebuck shoes
TTITLE13=Ye si ca
TTITLE14=Honkey tonk blues
EXTD=
EXTT0=
EXTT1=
EXTT2=
EXTT3=
EXTT4=
EXTT5=
EXTT6=
EXTT7=
EXTT8=
EXTT9=
EXTT10=
EXTT11=
EXTT12=
EXTT13=
EXTT14=
PLAYORDER=
